<?xml version="1.0" encoding="UTF-8"?>
<svg id="Layer_6" data-name="Layer 6" xmlns="http://www.w3.org/2000/svg" viewBox="0 0 552.63 397.6">
  <polyline points="175.95 297.51 240.06 204.81 353.99 348.26" style="fill: none; stroke: #fff; stroke-miterlimit: 10; stroke-width: 19.93px;"/>
  <polyline points="285.03 271.65 327.66 217.16 380.32 276.19" style="fill: none; stroke: #fff; stroke-miterlimit: 10; stroke-width: 19.93px;"/>
  <ellipse cx="313.25" cy="114.06" rx="15.07" ry="14.87" style="fill: none; stroke: #fff; stroke-miterlimit: 10; stroke-width: 13.3px;"/>
  <g>
    <path d="M325.73,382.33c-24.29-.11-75.05-.32-98.81-.43-10.36-.18-20.79-2.45-30-7.28-22.97-11.56-37.12-35.86-36.34-61.49.33-70.58.25-154.84.11-225.3,0,0,0-3.82,0-3.82v-.95s0-.48,0-.48c0,0,0-.24,0-.24,0,0,.01-.31.01-.31,0,0,.11-2.52.11-2.52.87-27.54,19.91-52.18,46.13-60.49,6.48-2,13.23-3.02,19.97-3.13l61.1-.23c4.06-.04,32.88-.1,36.28-.12,2.8,0,5.62.16,8.41.34,8.01.99,15.99,3.03,23.17,6.79,21.95,10.78,36.66,34.22,36.89,58.67.06,1.72.05,5.15.06,6.93.23,70.97.56,155.44.3,226.25.16,37.39-29.93,67.77-67.38,67.8h0ZM325.73,348.18c14.54-.11,27.73-10.07,31.44-24.14.66-2.38,1.07-4.9,1.11-7.37,0,0,.07-1.25.07-1.25,0,0,.01-.16.01-.16,0,0,0-.24,0-.24,0,0,0-.48,0-.48,0,0,0-.95,0-.95-.22-70.42.03-154.74.3-225.3,0,0,.01-3.82.01-3.82,0,0,0-1.91,0-1.91,0-.18,0-.29-.01-.39l-.02-.32c-.15-18.01-14.94-32.58-32.94-32.71-23.53-.08-74.75-.26-98.81-.35-14.6,0-27.61,9.37-32.13,23.25-.73,2.45-1.31,5-1.49,7.56,0,.68-.11,1.92-.15,2.59-.02.45-.01,1.36-.02,1.83-.11,73.06-.35,159.23.19,232.39.31,15.53,12.8,29.64,28.21,31.74.77.08,1.77.34,2.53.32,1.42.06,2.9.15,4.32.13,22.75-.09,74.08-.33,97.38-.42h0Z" style="fill: #3e63dd;"/>
    <path d="M524.86,365.25h-27.16c-27.61,0-50-22.39-50-50V82.34c0-27.61,22.39-50,50-50h27.16" style="fill: none; stroke: #3e63dd; stroke-linecap: round; stroke-miterlimit: 10; stroke-width: 30px;"/>
    <path d="M27.77,32.34h27.16c27.61,0,50,22.39,50,50v232.91c0,27.61-22.39,50-50,50h-27.16" style="fill: none; stroke: #3e63dd; stroke-linecap: round; stroke-miterlimit: 10; stroke-width: 30px;"/>
  </g>
</svg>